Immortals (2011) 1080p (RC-BluRay) MKV x264 AC3 NL Subs
.
Notes!!!!
RC BluRay 1080p (Rus) / NL Subs / DD Stereo (Eng) Custom Line Audio / MKV  
Opmerkingen : Op de BluRay is het DTS Spoor Russisch deze is verwijdert en het geluidspoor van de DVD R5 is toegevoegt.
.
Notes!!!!!
RC BluRay 1080p (Rus) / Eng Subs / DD Stereo (English) Custom Line Audio / MKV
Notes: On the BluRay DTS track is Russian it is removed and the audio track of the DVD R5 has been added.
.
[IMG]http://img543.imageshack.us/img543/739/44600643.jpg[/IMG]
.
Verenigde Staten
Actie / Fantasy
110 minuten

geregisseerd door Tarsem Singh
met Henry Cavill, Mickey Rourke en Freida Pinto

De bloeddorstige koning Hyperion (Mickey Rourke) laat met zijn leger een spoor van vernietiging achter in het oude Griekenland. Hyperion is op zoek naar de boog van Epirus. Daarmee wil hij de Goden van Olympus omverwerpen en zichzelf tot heerser van de wereld kronen. Een door Zeus (Luke Evans) uitverkoren sterfelijke, Theseus (Henry Cavill), moet het gevecht tegen Hyperion leiden. Met de hulp van het orakel Phaedra (Freida Pinto) verzamelt de jonge krijger genoeg mannen om zich heen om het op te nemen tegen de verraderlijke koning en zijn leger.

Momenteel te zien in 1 bioscoop
Vanaf 13 maart te huur
Vanaf 22 maart te koop op DVD en Blu-Ray
. 
http://www.moviemeter.nl/film/66621
.
PLOT
.
Theseus is a mortal man chosen by Zeus to lead the fight against the ruthless King Hyperion, who is on a rampage across Greece to obtain a weapon that can destroy humanity. 
. 
http://www.imdb.com/title/tt1253864/
.
INFO
.
Format                           : Matroska
Format version                   : Version 2
File size                        : 5.39 GiB
Duration                         : 1h 50mn
Overall bit rate                 : 6 986 Kbps
Movie name                       : Immortals 2011 RC BRRip alwin1971
Encoded date                     : UTC 2012-01-22 11:26:06
Writing application              : mkvmerge v5.2.1 ('A Far Off Place') built on Jan  2 2012 23:21:10
Writing library                  : libebml v1.2.3 + libmatroska v1.3.0

Video
ID                               : 1
Format                           : AVC
Format/Info                      : Advanced Video Codec
Format profile                   : High@L5.0
Format settings, CABAC           : No
Format settings, ReFrames        : 5 frames
Codec ID                         : V_MPEG4/ISO/AVC
Duration                         : 1h 50mn
Bit rate                         : 6 527 Kbps
Width                            : 1 920 pixels
Height                           : 1 080 pixels
Display aspect ratio             : 16:9
Frame rate mode                  : Variable
Frame rate                       : 23.976 fps
Color space                      : YUV
Chroma subsampling               : 4:2:0
Bit depth                        : 8 bits
Scan type                        : Progressive
Bits/(Pixel*Frame)               : 0.131
Stream size                      : 5.03 GiB (93%)
Language                         : English

Audio
ID                               : 2
Format                           : AC-3
Format/Info                      : Audio Coding 3
Mode extension                   : CM (complete main)
Codec ID                         : A_AC3
Duration                         : 1h 50mn
Bit rate mode                    : Constant
Bit rate                         : 320 Kbps
Channel(s)                       : 2 channels
Channel positions                : Front: L R
Sampling rate                    : 44.1 KHz
Bit depth                        : 16 bits
Compression mode                 : Lossy
Stream size                      : 253 MiB (5%)
Language                         : English

Text
ID                               : 3
Format                           : UTF-8
Codec ID                         : S_TEXT/UTF8
Codec ID/Info                    : UTF-8 Plain Text
Language                         : Dutch

Menu
00:00:00.000                     : en:00:00:00.000
00:09:36.493                     : en:00:09:36.493
00:21:14.982                     : en:00:21:14.982
00:30:59.649                     : en:00:30:59.649
00:39:22.068                     : en:00:39:22.068
00:49:02.898                     : en:00:49:02.898
00:59:40.577                     : en:00:59:40.577
01:09:29.040                     : en:01:09:29.040
01:16:17.907                     : en:01:16:17.907
01:24:33.944                     : en:01:24:33.944
01:31:38.076                     : en:01:31:38.076
01:36:46.926                     : en:01:36:46.926


